# xmcd
#
# Track frame offsets: 
#        150
#        37999
#        78640
#        112732
#        141106
#        171448
#        192171
#        220652
#        242630
#        263569
#
# Disc length: 3852 seconds
#
# Revision: 5
# Processed by: cddbd v1.5.2PL0 Copyright (c) Steve Scherf et al.
# Submitted via: ExactAudioCopy v1.0b1
#
DISCID=800f0a0a
DTITLE=Claude VonStroke - Beware Of The Bird
DYEAR=2007
DGENRE=House, Electro, Ghetto
TTITLE0=Who's Afraid Of Detroit? (Tanner Ross Remix)
TTITLE1=Deep Throat (John Tejada Remix)
TTITLE2=The Whistler (Aston Shuffle Remix)
TTITLE3=Beware Of The Bird (Justin Martin Remix)
TTITLE4=The 7 Deadly Strokes (Patrick Chardronnet Remix)
TTITLE5=Deep Throat (Sebastien Leger Remix)
TTITLE6=The Whistler (Diplo Remix)
TTITLE7=Who's Afraid Of Detroit? (Audion Remix)
TTITLE8=Chimps (Jochen Trappe Remix)
TTITLE9=The Whistler (DJ Assault Remix)
EXTD=
EXTT0=
EXTT1=
EXTT2=
EXTT3=
EXTT4=
EXTT5=
EXTT6=
EXTT7=
EXTT8=
EXTT9=
PLAYORDER=
